<svg width="787" height="834" viewBox="0 0 787 834" fill="none" xmlns="http://www.w3.org/2000/svg">
<g opacity="0.5">
<path d="M679.652 533.992L648.956 272.498C650.694 271.919 651.852 270.471 651.852 268.734C651.852 266.417 650.115 264.68 647.798 264.68C646.35 264.68 645.192 265.259 644.323 266.417L456.962 173.461C456.962 173.171 457.252 172.592 457.252 172.303C457.252 169.986 455.515 168.248 453.198 168.248C451.171 168.248 449.723 169.696 449.144 171.434L300.298 156.086C300.298 153.769 298.56 152.032 296.244 152.032C293.927 152.032 292.19 153.769 292.19 156.086C292.19 156.955 292.479 157.823 293.058 158.403L169.985 271.34C169.406 270.761 168.248 270.471 167.379 270.471C165.062 270.471 163.325 272.209 163.325 274.526C163.325 276.553 164.773 278 166.51 278.58L147.687 417.58C145.371 417.58 143.633 419.317 143.633 421.634C143.633 423.951 145.371 425.688 147.687 425.688C148.267 425.688 148.556 425.688 149.135 425.398L253.965 625.501C253.096 626.369 252.227 627.528 252.227 628.686C252.227 631.003 253.965 632.74 256.281 632.74C257.729 632.74 258.887 632.161 259.756 631.003L366.323 686.892C366.033 687.471 366.033 687.761 366.033 688.34C366.033 690.657 367.771 692.394 370.087 692.394C372.115 692.394 373.852 690.657 374.142 688.63L573.954 678.494C574.244 680.232 575.981 681.68 578.008 681.68C580.325 681.68 582.062 679.942 582.062 677.625C582.062 676.467 581.483 675.309 580.904 674.73L677.625 541.521C678.204 541.811 678.783 542.1 679.652 542.1C681.969 542.1 683.706 540.363 683.706 538.046C683.417 536.019 681.679 534.282 679.652 533.992ZM578.587 545.286L578.877 441.036C579.456 441.036 580.325 440.746 580.614 440.167L675.887 535.73C675.308 536.309 675.019 537.178 675.019 538.046L578.587 545.286ZM577.14 673.861C576.56 673.861 575.981 674.151 575.402 674.44L472.89 556.869C473.469 556.29 473.758 555.421 474.048 554.553L577.14 546.734V673.861ZM364.296 591.909L466.808 556.29C467.098 556.58 467.387 557.159 467.677 557.448L372.404 685.155C371.825 684.865 371.246 684.576 370.667 684.576L364.296 591.909ZM258.598 625.501L353.002 463.044C353.292 463.334 353.871 463.334 354.16 463.334L362.848 590.751L259.756 626.659C259.467 626.369 259.177 625.79 258.598 625.501ZM151.452 420.475L264.679 371.536L351.265 456.963C350.975 457.253 350.975 457.542 350.685 458.121L151.452 421.634C151.452 421.634 151.452 421.634 151.452 421.344C151.452 421.055 151.452 420.765 151.452 420.475ZM171.433 275.394L433.796 296.534C433.796 296.823 433.796 297.113 433.796 297.403L265.258 370.088L170.565 276.842C170.854 276.263 171.144 275.684 171.433 275.394ZM643.744 270.182C644.033 271.051 644.612 271.919 645.481 272.498L579.167 432.928C578.877 432.928 578.587 432.638 578.008 432.638C577.139 432.638 576.271 432.928 575.692 433.507L440.746 298.561C441.325 297.982 441.615 297.113 441.615 296.244L643.744 270.182ZM358.215 461.596C358.504 461.017 358.794 460.438 358.794 459.569L456.383 449.723L469.125 550.209C468.546 550.498 467.967 550.788 467.387 551.078L358.215 461.596ZM574.244 436.692L457.542 448.276L439.008 300.009C439.587 300.009 439.877 299.719 440.167 299.43L575.112 434.376C574.533 435.244 574.244 435.823 574.244 436.692ZM437.56 300.298L456.094 448.565L358.504 458.411C358.215 457.542 357.635 456.673 356.767 456.094L436.112 300.298C436.692 300.009 437.271 300.298 437.56 300.298ZM470.283 550.209L457.542 449.723L574.244 438.14C574.533 438.719 574.823 439.298 575.112 439.588L472.6 551.078C472.021 550.498 471.152 550.209 470.283 550.209ZM434.375 298.271C434.665 298.85 434.954 299.14 435.533 299.43L356.187 455.515C355.608 455.226 355.319 455.225 354.74 455.225C353.871 455.225 353.002 455.515 352.423 456.094L266.127 370.957L434.375 298.271ZM355.608 463.334C356.477 463.044 357.056 462.755 357.635 462.176L466.808 551.946C466.519 552.526 466.229 553.394 466.229 554.263C466.229 554.553 466.229 554.842 466.229 555.132L364.006 590.751L355.608 463.334ZM474.048 553.394C473.758 552.815 473.469 552.236 473.179 551.657L575.692 440.167C576.271 440.457 576.85 440.746 577.429 440.746L577.14 545.286L474.048 553.394ZM676.756 534.861L581.483 439.298C582.062 438.719 582.352 437.851 582.352 436.692C582.352 435.244 581.483 433.796 580.325 433.217L646.64 272.498C646.929 272.498 647.219 272.498 647.508 272.498L678.204 533.992C677.625 534.282 677.046 534.571 676.756 534.861ZM643.744 268.734L441.615 295.086C441.325 293.638 440.167 292.769 438.719 292.48L453.198 176.646C454.646 176.646 455.804 176.067 456.673 174.909L644.033 267.865C643.744 267.865 643.744 268.155 643.744 268.734ZM452.329 176.357L437.85 292.19C436.981 292.19 436.112 292.48 435.244 293.059L299.719 158.692C300.008 158.113 300.298 157.823 300.587 157.244L449.433 172.592C449.144 174.33 450.592 175.778 452.329 176.357ZM293.927 159.271C294.506 159.85 295.665 160.14 296.533 160.14C297.402 160.14 298.271 159.85 299.14 159.271L434.665 293.638C434.375 294.217 434.085 294.507 433.796 295.086L171.433 273.946C171.433 273.078 171.144 272.498 170.854 271.919L293.927 159.271ZM167.379 278.58C168.248 278.58 169.117 278.29 169.696 277.711L263.81 370.667L150.873 419.317C150.294 418.448 149.425 417.869 148.556 417.58L167.379 278.58ZM151.452 422.792L350.685 459.28C350.685 459.28 350.685 459.28 350.685 459.569C350.685 461.017 351.265 462.176 352.423 462.755L257.729 624.921C257.15 624.632 256.571 624.632 255.992 624.632C255.412 624.632 255.123 624.632 254.544 624.921L149.425 424.819C150.583 424.24 151.162 423.661 151.452 422.792ZM260.335 627.817L363.137 591.909L369.219 683.996C368.06 684.286 367.192 684.865 366.612 685.734L260.046 629.844C260.335 629.265 260.335 628.976 260.335 628.396C260.335 628.396 260.335 628.107 260.335 627.817ZM374.142 687.471C373.852 686.603 373.562 686.023 372.983 685.444L468.256 557.738C468.835 558.028 469.414 558.317 470.283 558.317C471.152 558.317 472.021 558.028 472.6 557.738L575.112 675.309C574.533 675.888 574.244 676.757 574.244 677.625L374.142 687.471ZM578.587 673.861L578.877 546.444L675.598 538.915C675.887 539.784 676.177 540.363 676.756 540.942L580.035 674.151C579.456 674.151 578.877 673.861 578.587 673.861Z" fill="#006796"/>
<path d="M502.427 297.113C502.427 335.338 471.442 366.323 433.217 366.323C394.992 366.323 364.006 335.338 364.006 297.113C364.006 258.888 394.992 227.902 433.217 227.902C471.442 227.902 502.427 258.888 502.427 297.113Z" fill="#F0FFFF"/>
<path d="M434.085 228.771C471.152 228.771 501.269 258.887 501.269 295.954C501.269 333.021 471.152 363.137 434.085 363.137C397.019 363.137 366.902 333.021 366.902 295.954C366.902 258.887 397.019 228.771 434.085 228.771ZM434.085 221.531C392.965 221.531 359.663 254.833 359.663 295.954C359.663 337.075 392.965 370.377 434.085 370.377C475.206 370.377 508.508 337.075 508.508 295.954C508.508 254.833 475.206 221.531 434.085 221.531Z" fill="#006796"/>
<path d="M464.202 294.506C467.098 290.742 468.835 286.109 468.835 281.186V280.027C468.835 268.444 459.569 258.888 448.275 258.019V249.621H433.506V257.729H427.425V249.621H412.656V257.729H409.181H401.942V272.498H409.181V288.425V303.194V320.859H401.942V335.627H409.181H412.656V342.288H427.425V335.627H433.506V342.288H448.275V335.627H448.854C461.306 335.627 471.731 325.492 471.731 312.75V311.592C471.442 304.642 468.546 298.85 464.202 294.506ZM423.95 272.498H427.135H446.827C450.881 272.498 454.067 275.684 454.067 279.738V280.896C454.067 284.95 450.881 288.136 446.827 288.136H424.24V272.498H423.95ZM456.673 312.461C456.673 317.094 452.908 320.569 448.565 320.569H427.135H423.95V302.904H446.537H448.565C453.198 302.904 456.673 306.669 456.673 311.013V312.461Z" fill="#006796"/>
<path d="M578.008 469.414C594.481 469.414 607.835 456.06 607.835 439.587C607.835 423.114 594.481 409.76 578.008 409.76C561.535 409.76 548.181 423.114 548.181 439.587C548.181 456.06 561.535 469.414 578.008 469.414Z" fill="#F0FFFF"/>
<path d="M578.298 410.05C594.225 410.05 607.256 423.081 607.256 439.008C607.256 454.936 594.225 467.967 578.298 467.967C562.371 467.967 549.34 454.936 549.34 439.008C549.34 423.081 562.371 410.05 578.298 410.05ZM578.298 407.154C560.633 407.154 546.444 421.344 546.444 439.008C546.444 456.673 560.633 470.863 578.298 470.863C595.963 470.863 610.152 456.673 610.152 439.008C610.152 421.344 595.963 407.154 578.298 407.154Z" fill="#006796"/>
<path d="M591.039 438.429C592.198 436.692 593.067 434.954 593.067 432.638V432.059C593.067 427.136 589.012 423.081 584.089 422.792V419.317H577.719V422.792H575.112V419.317H568.742V422.792H567.583H564.398V429.163H567.583V436.113V442.484V450.013H564.398V456.384H567.583H569.031V459.279H575.402V456.384H578.008V459.279H584.379V456.384H584.669C590.171 456.384 594.514 452.04 594.514 446.538V445.959C594.225 442.773 593.067 440.167 591.039 438.429ZM573.954 429.163H575.402H583.8C585.537 429.163 586.985 430.611 586.985 432.348V432.927C586.985 434.665 585.537 436.113 583.8 436.113H573.954V429.163ZM588.144 446.248C588.144 448.275 586.696 449.723 584.669 449.723H575.402H573.954V442.194H583.8H584.669C586.696 442.194 588.144 443.642 588.144 445.669V446.248Z" fill="#006796"/>
<path d="M453.487 205.604C472.04 205.604 487.079 190.565 487.079 172.013C487.079 153.46 472.04 138.421 453.487 138.421C434.935 138.421 419.896 153.46 419.896 172.013C419.896 190.565 434.935 205.604 453.487 205.604Z" fill="#F0FFFF"/>
<path d="M454.067 139C472.021 139 486.5 153.479 486.5 171.433C486.5 189.387 472.021 203.867 454.067 203.867C436.112 203.867 421.633 189.387 421.633 171.433C421.344 153.769 436.112 139 454.067 139ZM454.067 135.525C434.085 135.525 418.158 151.742 418.158 171.433C418.158 191.125 434.375 207.342 454.067 207.342C474.048 207.342 489.975 191.125 489.975 171.433C489.975 151.742 473.758 135.525 454.067 135.525Z" fill="#006796"/>
<path d="M468.546 170.854C469.994 169.117 470.863 166.8 470.863 164.484V163.904C470.863 158.402 466.519 153.769 461.017 153.19V149.136H454.067V153.19H451.171V149.136H444.221V153.19H442.483H439.008V160.14H442.483V167.959V174.909V183.307H439.008V190.257H442.483H444.221V194.021H451.171V190.836H454.067V194.021H461.017V190.836H461.306C467.387 190.836 472.31 185.913 472.31 179.832V179.252C472.021 175.777 470.573 172.882 468.546 170.854ZM449.144 160.429H450.592H460.148C462.175 160.429 463.623 162.167 463.623 163.904V164.484C463.623 166.511 462.175 167.959 460.148 167.959H449.144V160.429ZM465.071 179.542C465.071 181.859 463.333 183.596 461.017 183.596H450.592H449.144V175.198H460.148H461.017C463.333 175.198 465.071 176.936 465.071 179.252V179.542Z" fill="#006796"/>
<path d="M324.912 156.954C324.912 172.881 311.881 185.912 295.954 185.912C280.027 185.912 266.996 172.881 266.996 156.954C266.996 141.027 280.027 127.996 295.954 127.996C311.881 127.996 324.912 141.027 324.912 156.954Z" fill="#F0FFFF"/>
<path d="M295.954 128.285C311.592 128.285 324.044 141.027 324.044 156.375C324.044 171.723 311.302 184.465 295.954 184.465C280.606 184.465 267.575 171.723 267.575 156.375C267.575 141.027 280.606 128.285 295.954 128.285ZM295.954 125.39C278.579 125.39 264.679 139.29 264.679 156.665C264.679 174.04 278.579 187.94 295.954 187.94C313.329 187.94 327.229 174.04 327.229 156.665C327.229 139.29 313.329 125.39 295.954 125.39Z" fill="#006796"/>
<path d="M308.696 155.796C309.854 154.348 310.723 152.321 310.723 150.294V149.715C310.723 144.792 306.958 140.738 302.035 140.448V136.973H295.954V140.448H293.348V136.973H287.267V140.448H285.819H282.633V146.529H285.819V153.479V159.561V167.09H282.633V173.171H285.819H287.267V176.067H293.348V173.171H295.954V176.067H302.035V173.171H302.325C307.537 173.171 311.881 168.827 311.881 163.615V163.036C311.881 160.14 310.433 157.823 308.696 155.796ZM291.9 146.819H293.348H301.456C303.194 146.819 304.642 148.267 304.642 150.004V150.584C304.642 152.321 303.194 153.769 301.456 153.769H291.9V146.819ZM305.51 163.615C305.51 165.642 304.062 167.09 302.035 167.09H293.058H291.61V159.561H301.167H302.035C304.062 159.561 305.51 161.009 305.51 163.036V163.615Z" fill="#006796"/>
<path d="M602.912 675.019C602.912 690.657 590.171 703.109 574.823 703.109C559.185 703.109 546.733 690.367 546.733 675.019C546.733 659.382 559.475 646.93 574.823 646.93C590.46 646.93 602.912 659.382 602.912 675.019Z" fill="#F0FFFF"/>
<path d="M575.113 647.219C590.171 647.219 602.333 659.382 602.333 674.44C602.333 689.498 590.171 701.661 575.113 701.661C560.054 701.661 547.892 689.498 547.892 674.44C547.892 659.382 560.054 647.219 575.113 647.219ZM575.113 644.323C558.317 644.323 544.706 657.934 544.706 674.73C544.706 691.525 558.317 705.136 575.113 705.136C591.908 705.136 605.519 691.525 605.519 674.73C605.519 657.644 591.908 644.323 575.113 644.323Z" fill="#006796"/>
<path d="M587.275 673.86C588.433 672.413 589.013 670.385 589.013 668.358V667.779C589.013 663.146 585.248 659.092 580.615 658.802V655.327H574.533V658.802H572.217V655.327H566.135V658.802H564.688H561.792V664.883H564.688V671.254V677.335V684.575H561.792V690.656H564.688H566.135V693.263H572.217V690.656H574.533V693.263H580.615V690.656H580.904C586.117 690.656 590.171 686.602 590.171 681.39V680.811C590.46 677.915 589.302 675.598 587.275 673.86ZM571.058 664.883H572.217H580.325C582.063 664.883 583.221 666.331 583.221 667.779V668.358C583.221 670.096 581.773 671.254 580.325 671.254H571.058V664.883ZM584.379 681.39C584.379 683.127 582.931 684.575 581.194 684.575H572.506H571.348V677.335H580.615H581.483C583.221 677.335 584.669 678.783 584.669 680.521V681.39H584.379Z" fill="#006796"/>
<path d="M677.046 266.706C677.046 283.213 663.725 296.534 647.219 296.534C630.713 296.534 617.392 283.213 617.392 266.706C617.392 250.2 630.713 236.879 647.219 236.879C663.435 236.879 677.046 250.2 677.046 266.706Z" fill="#F0FFFF"/>
<path d="M647.219 237.169C663.146 237.169 676.467 250.2 676.467 266.127C676.467 282.054 663.435 295.085 647.219 295.085C631.292 295.085 618.26 282.054 618.26 266.127C618.26 250.2 631.292 237.169 647.219 237.169ZM647.219 233.983C629.554 233.983 615.075 248.463 615.075 266.127C615.075 283.792 629.554 298.271 647.219 298.271C664.883 298.271 679.363 283.792 679.363 266.127C679.652 248.463 665.173 233.983 647.219 233.983Z" fill="#006796"/>
<path d="M660.25 265.548C661.408 263.811 662.277 262.073 662.277 259.756V259.177C662.277 254.254 658.223 249.911 653.3 249.621V246.146H646.929V249.621H644.323V246.146H637.952V249.621H636.504H633.319V255.992H636.504V262.942V269.313V276.842H633.319V283.213H636.504H637.952V286.108H644.323V283.213H646.929V286.108H653.3V283.213H653.59C659.092 283.213 663.435 278.869 663.435 273.367V272.788C663.435 269.892 662.277 267.575 660.25 265.548ZM642.875 256.281H644.323H652.721C654.458 256.281 655.906 257.729 655.906 259.467V260.046C655.906 261.783 654.458 263.231 652.721 263.231H642.875V256.281ZM657.065 273.367C657.065 275.394 655.617 276.842 653.59 276.842H644.323H642.875V269.313H652.721H653.59C655.617 269.313 657.065 270.761 657.065 272.788V273.367Z" fill="#006796"/>
<path d="M286.958 636.229C291.131 618.644 280.259 601.006 262.675 596.833C245.09 592.661 227.453 603.533 223.28 621.117C219.107 638.702 229.979 656.339 247.563 660.512C265.148 664.685 282.786 653.813 286.958 636.229Z" fill="#F0FFFF"/>
<path d="M255.412 596.542C272.787 596.542 287.267 610.731 287.267 628.396C287.267 645.771 273.077 660.25 255.412 660.25C238.037 660.25 223.558 646.061 223.558 628.396C223.848 610.731 238.037 596.542 255.412 596.542ZM255.412 593.067C236.01 593.067 220.373 608.704 220.373 628.106C220.373 647.509 236.01 663.146 255.412 663.146C274.815 663.146 290.452 647.509 290.452 628.106C290.452 608.704 274.815 593.067 255.412 593.067Z" fill="#006796"/>
<path d="M269.602 627.527C271.05 625.79 271.919 623.473 271.919 621.156V620.577C271.919 615.075 267.575 610.442 262.073 610.152V606.098H255.123V609.863H252.227V606.098H245.277V609.863H243.54H240.354V616.813H243.829V624.342V631.292V639.69H240.354V646.64H243.829H245.567V649.825H252.517V646.64H255.413V649.825H262.363V646.64H262.652C268.733 646.64 273.367 641.717 273.367 635.925V635.346C273.077 632.161 271.629 629.554 269.602 627.527ZM250.779 617.102H252.227H261.494C263.521 617.102 264.969 618.55 264.969 620.577V621.156C264.969 623.184 263.521 624.631 261.494 624.631H250.779V617.102ZM266.127 635.925C266.127 637.952 264.39 639.69 262.363 639.69H252.227H250.779V631.292H261.494H262.363C264.39 631.292 266.127 633.029 266.127 635.056V635.925Z" fill="#006796"/>
<path d="M183.596 422.213C183.596 442.773 167.09 459.279 146.529 459.279C125.969 459.279 109.463 442.773 109.463 422.213C109.463 401.652 125.969 385.146 146.529 385.146C167.09 385.146 183.596 401.652 183.596 422.213Z" fill="#F0FFFF"/>
<path d="M146.819 385.435C166.8 385.435 183.017 401.652 183.017 421.633C183.017 441.615 166.8 457.831 146.819 457.831C126.838 457.831 110.621 441.615 110.621 421.633C110.621 401.652 126.838 385.435 146.819 385.435ZM146.819 381.671C124.81 381.671 106.856 399.625 106.856 421.633C106.856 443.642 124.81 461.596 146.819 461.596C168.827 461.596 186.781 443.642 186.781 421.633C186.781 399.625 168.827 381.671 146.819 381.671Z" fill="#006796"/>
<path d="M163.035 420.765C164.483 418.738 165.642 416.421 165.642 413.525V412.946C165.642 406.575 160.719 401.652 154.638 401.073V396.729H146.819V401.073H143.633V396.729H135.815V401.073H134.077H130.312V408.892H134.077V417.29V425.109V434.665H130.312V442.484H134.077H135.815V445.959H143.633V442.484H146.819V445.959H154.638V442.484H154.927C161.587 442.484 167.09 436.982 167.09 430.321V429.742C166.8 426.267 165.352 423.082 163.035 420.765ZM141.606 409.182H143.344H153.769C155.796 409.182 157.823 410.919 157.823 413.236V413.815C157.823 415.842 156.085 417.869 153.769 417.869H141.606V409.182ZM158.981 430.611C158.981 432.927 156.954 434.954 154.638 434.954H143.054H141.317V425.398H153.479H154.348C156.665 425.398 158.692 427.425 158.692 429.742V430.611H158.981Z" fill="#006796"/>
<path d="M698.475 537.467C698.475 549.629 688.629 559.475 676.756 559.475C664.594 559.475 654.748 549.629 654.748 537.467C654.748 525.304 664.594 515.748 676.756 515.748C688.629 515.748 698.475 525.304 698.475 537.467Z" fill="#F0FFFF"/>
<path d="M677.046 516.037C688.629 516.037 698.185 525.594 698.185 537.177C698.185 548.76 688.629 558.317 677.046 558.317C665.462 558.317 655.906 548.76 655.906 537.177C655.617 525.304 665.173 516.037 677.046 516.037ZM677.046 513.721C664.015 513.721 653.59 524.146 653.59 537.177C653.59 550.208 664.015 560.633 677.046 560.633C690.077 560.633 700.502 550.208 700.502 537.177C700.502 524.146 689.787 513.721 677.046 513.721Z" fill="#006796"/>
<path d="M686.312 536.598C687.181 535.439 687.76 533.992 687.76 532.254V531.964C687.76 528.2 684.865 525.304 681.39 525.014V522.408H676.756V525.014H674.729V522.408H670.096V525.014H668.937H666.621V529.648H668.937V534.571V539.204V544.706H666.621V549.339H668.937H670.096V551.366H674.729V549.339H676.756V551.366H681.39V549.339H681.679C685.733 549.339 688.919 546.154 688.919 542.1V541.81C688.629 539.783 687.76 538.046 686.312 536.598ZM673.86 529.648H674.729H680.81C681.969 529.648 683.127 530.806 683.127 531.964V532.254C683.127 533.412 681.969 534.571 680.81 534.571H673.571V529.648H673.86ZM683.996 542.389C683.996 543.837 682.837 544.996 681.39 544.996H674.729H673.86V539.494H681.1H681.679C683.127 539.494 684.285 540.652 684.285 542.1V542.389H683.996Z" fill="#006796"/>
<path d="M212.554 274.525C212.554 301.746 190.546 323.754 163.325 323.754C136.104 323.754 114.096 301.746 114.096 274.525C114.096 247.304 136.104 225.296 163.325 225.296C190.256 225.296 212.554 247.304 212.554 274.525Z" fill="#F0FFFF"/>
<path d="M163.615 225.875C189.967 225.875 211.396 247.304 211.396 273.656C211.396 300.008 190.256 321.438 163.615 321.438C137.263 321.438 115.833 300.008 115.833 273.656C115.833 247.304 137.263 225.875 163.615 225.875ZM163.615 220.952C134.367 220.952 110.621 244.698 110.621 273.946C110.621 303.194 134.367 326.94 163.615 326.94C192.863 326.94 216.608 303.194 216.608 273.946C216.608 244.408 192.863 220.952 163.615 220.952Z" fill="#006796"/>
<path d="M185.044 272.787C187.071 270.181 188.229 266.706 188.229 263.231V262.362C188.229 253.964 181.858 247.304 173.46 246.725V240.933H163.035V246.725H158.692V240.933H148.267V246.725H145.95H140.738V257.15H145.95V268.444V278.869V291.321H140.738V301.746H145.95H148.267V306.669H158.692V301.746H163.035V306.669H173.75V301.746H174.04C183.017 301.746 190.256 294.506 190.256 285.529V284.66C190.256 280.027 188.229 275.683 185.044 272.787ZM156.665 257.15H158.981H172.881C175.777 257.15 178.094 259.466 178.094 262.362V263.231C178.094 266.127 175.777 268.444 172.881 268.444H156.665V257.15ZM179.831 285.529C179.831 288.714 177.225 291.321 174.04 291.321H158.692H156.375V278.869H172.592H174.04C177.225 278.869 179.831 281.475 179.831 284.66V285.529Z" fill="#006796"/>
<path d="M408.602 688.919C408.602 711.506 390.069 730.04 367.481 730.04C344.894 730.04 326.36 711.506 326.36 688.919C326.36 666.331 344.894 647.798 367.481 647.798C390.069 647.798 408.602 666.331 408.602 688.919Z" fill="#F0FFFF"/>
<path d="M367.771 648.377C389.779 648.377 407.733 666.332 407.733 688.34C407.733 710.348 389.779 728.303 367.771 728.303C345.762 728.303 327.808 710.348 327.808 688.34C327.808 666.332 345.762 648.377 367.771 648.377ZM367.771 644.034C343.446 644.034 323.465 663.725 323.465 688.34C323.465 712.665 343.156 732.646 367.771 732.646C392.385 732.646 412.077 712.955 412.077 688.34C412.077 664.015 392.385 644.034 367.771 644.034Z" fill="#006796"/>
<path d="M385.725 687.471C387.462 685.154 388.331 682.548 388.331 679.363V678.783C388.331 671.833 382.829 666.042 376.169 665.752V660.829H367.481V665.752H364.006V660.829H355.319V665.752H353.292H348.948V674.44H353.292V683.996V692.683V703.108H348.948V711.796H353.292H355.319V715.85H364.006V711.796H367.481V715.85H376.169V711.796H376.458C383.987 711.796 390.069 705.715 390.069 698.185V697.317C390.069 693.552 388.331 690.077 385.725 687.471ZM361.979 674.44H363.717H375.3C377.617 674.44 379.644 676.467 379.644 678.783V679.363C379.644 681.679 377.617 683.706 375.3 683.706H361.979V674.44ZM381.381 698.185C381.381 700.792 379.065 703.108 376.458 703.108H363.717H361.979V692.683H375.59H376.748C379.354 692.683 381.671 695 381.671 697.606V698.185H381.381Z" fill="#006796"/>
<path d="M406.285 460.437C406.285 489.685 382.54 513.431 353.292 513.431C324.044 513.431 300.298 489.685 300.298 460.437C300.298 431.189 324.044 407.443 353.292 407.443C382.54 407.733 406.285 431.479 406.285 460.437Z" fill="#F0FFFF"/>
<path d="M353.871 408.312C382.25 408.312 405.417 431.479 405.417 459.858C405.417 488.237 382.25 511.404 353.871 511.404C325.492 511.404 302.325 488.237 302.325 459.858C302.325 431.479 325.492 408.312 353.871 408.312ZM353.871 402.81C322.596 402.81 297.112 428.293 297.112 459.568C297.112 490.843 322.596 516.327 353.871 516.327C385.146 516.327 410.629 490.843 410.629 459.568C410.629 428.293 385.435 402.81 353.871 402.81Z" fill="#006796"/>
<path d="M376.748 458.7C379.065 455.804 380.223 452.329 380.223 448.564V447.695C380.223 438.718 373.273 431.479 364.585 430.9V424.529H353.292V430.9H348.658V424.529H337.365V430.9H334.758H329.256V442.193H334.758V454.356V465.65V478.97H329.256V490.264H334.758H337.365V495.477H348.658V490.264H353.292V495.477H364.585V490.264H364.875C374.431 490.264 382.25 482.445 382.25 472.889V472.02C382.54 466.518 380.223 461.885 376.748 458.7ZM346.342 441.904H348.658H363.717C366.902 441.904 369.219 444.51 369.219 447.406V448.275C369.219 451.46 366.612 453.777 363.717 453.777H346.342V441.904ZM371.246 472.31C371.246 475.785 368.35 478.681 364.875 478.681H348.369H346.052V465.36H363.427H364.875C368.35 465.36 371.246 468.256 371.246 471.731V472.31Z" fill="#006796"/>
<path d="M465.607 598.85C487.996 598.551 505.903 580.159 505.604 557.771C505.305 535.383 486.914 517.476 464.525 517.774C442.137 518.073 424.23 536.465 424.529 558.853C424.828 581.241 443.219 599.148 465.607 598.85Z" fill="#F0FFFF"/>
<path d="M465.65 518.064C487.369 518.064 505.323 535.729 505.323 557.737C505.323 579.456 487.658 597.121 465.65 597.121C443.931 597.121 425.977 579.456 425.977 557.737C426.267 535.729 443.931 518.064 465.65 518.064ZM465.65 513.721C441.615 513.721 421.923 533.412 421.923 557.448C421.923 581.483 441.615 601.175 465.65 601.175C489.685 601.175 509.377 581.483 509.377 557.448C509.377 533.412 489.685 513.721 465.65 513.721Z" fill="#006796"/>
<path d="M483.315 556.868C485.052 554.552 485.921 551.945 485.921 549.049V548.47C485.921 541.52 480.419 536.018 473.758 535.729V530.806H465.071V535.729H461.596V530.806H452.908V535.729H450.881H446.538V544.416H450.881V553.683V562.37V572.795H446.538V581.483H450.881H452.908V585.537H461.596V581.483H465.071V585.537H473.758V581.483H474.048C481.577 581.483 487.369 575.402 487.369 568.162V567.293C487.658 562.66 485.921 559.185 483.315 556.868ZM459.858 543.837H461.596H473.179C475.496 543.837 477.523 545.864 477.523 548.181V548.76C477.523 551.076 475.496 553.104 473.179 553.104H459.858V543.837ZM478.971 567.293C478.971 569.899 476.944 572.216 474.048 572.216H461.306H459.569V561.791H472.89H474.048C476.654 561.791 478.971 563.818 478.971 566.714V567.293Z" fill="#006796"/>
</g>
</svg>
