<svg width="60" height="60" viewBox="0 0 60 60" fill="none" xmlns="http://www.w3.org/2000/svg">
<circle cx="30" cy="30" r="29" stroke="#7B9FFD" stroke-width="2"/>
<path fill-rule="evenodd" clip-rule="evenodd" d="M18.5714 17.8572C16.599 17.8572 15 19.4562 15 21.4286V35.7143C15 37.6868 16.599 39.2857 18.5714 39.2857H27.4157L25.9871 42.1429H22.8571C22.4627 42.1429 22.1429 42.4627 22.1429 42.8572C22.1429 43.2516 22.4627 43.5715 22.8571 43.5715H26.4131C26.4231 43.5716 26.433 43.5716 26.4429 43.5715H33.5571C33.567 43.5716 33.5769 43.5716 33.5869 43.5715H37.1429C37.5373 43.5715 37.8571 43.2516 37.8571 42.8572C37.8571 42.4627 37.5373 42.1429 37.1429 42.1429H34.0129L32.5843 39.2857H41.4286C43.401 39.2857 45 37.6868 45 35.7143V21.4286C45 19.4562 43.401 17.8572 41.4286 17.8572H18.5714ZM32.4157 42.1429L30.9871 39.2857H29.0129L27.5843 42.1429H32.4157ZM31.413 37.8572C31.423 37.857 31.433 37.857 31.443 37.8572H41.4286C42.612 37.8572 43.5714 36.8977 43.5714 35.7143V21.4286C43.5714 20.2451 42.612 19.2857 41.4286 19.2857H18.5714C17.388 19.2857 16.4286 20.2451 16.4286 21.4286V35.7143C16.4286 36.8977 17.388 37.8572 18.5714 37.8572H28.557C28.567 37.857 28.577 37.857 28.5869 37.8572H31.413Z" fill="#7B9FFD"/>
</svg>
