<svg width="60" height="60" viewBox="0 0 60 60" fill="none" xmlns="http://www.w3.org/2000/svg">
<circle cx="30" cy="30" r="29" stroke="#7B9FFD" stroke-width="2"/>
<g clip-path="url(#clip0)">
<path d="M35.8708 19.7681H39.2408C39.4513 20.3915 40.0417 20.8416 40.7352 20.8416C41.6046 20.8416 42.312 20.1343 42.312 19.2649C42.312 18.3954 41.6046 17.6881 40.7352 17.6881C40.0417 17.6881 39.4513 18.1382 39.2408 18.7616H34.8644V20.8751H35.8708V19.7681ZM40.7352 18.6945C41.0497 18.6945 41.3055 18.9504 41.3055 19.2649C41.3055 19.5793 41.0497 19.8352 40.7352 19.8352C40.4207 19.8352 40.1649 19.5793 40.1649 19.2649C40.1649 18.9504 40.4207 18.6945 40.7352 18.6945Z" fill="#7B9FFD"/>
<path d="M45.5661 31.6439C44.8726 31.6439 44.2822 32.094 44.0717 32.7174H41.7752V30.5704H38.0179V27.2827H42.4614C42.6719 27.9062 43.2623 28.3562 43.9558 28.3562C44.8253 28.3562 45.5326 27.6489 45.5326 26.7795C45.5326 25.9101 44.8253 25.2028 43.9558 25.2028C43.2623 25.2028 42.6719 25.6528 42.4614 26.2763H38.0179V21.9822H21.9821V26.2427H22.9885V22.9886H37.0115V37.0115H22.9885V27.3163H21.9821V29.4969H16.7334C16.523 28.8734 15.9326 28.4233 15.239 28.4233C14.3696 28.4233 13.6623 29.1306 13.6623 30.0001C13.6623 30.8695 14.3696 31.5768 15.239 31.5768C15.9326 31.5768 16.523 31.1267 16.7334 30.5033H21.9821V38.018H27.3497V40.2321H23.9797C23.7693 39.6087 23.1789 39.1586 22.4853 39.1586C21.6159 39.1586 20.9086 39.8659 20.9086 40.7353C20.9086 41.6047 21.6159 42.3121 22.4853 42.3121C23.1789 42.3121 23.7693 41.862 23.9797 41.2385H28.3562V38.018H38.0179V31.5768H40.7688V33.7239H44.0717C44.2822 34.3473 44.8726 34.7974 45.5661 34.7974C46.4355 34.7974 47.1429 34.0901 47.1429 33.2206C47.1429 32.3512 46.4355 31.6439 45.5661 31.6439ZM43.9558 26.2092C44.2703 26.2092 44.5261 26.465 44.5261 26.7795C44.5261 27.094 44.2703 27.3498 43.9558 27.3498C43.6414 27.3498 43.3855 27.094 43.3855 26.7795C43.3855 26.465 43.6414 26.2092 43.9558 26.2092ZM15.239 30.5704C14.9246 30.5704 14.6687 30.3145 14.6687 30.0001C14.6687 29.6856 14.9246 29.4298 15.239 29.4298C15.5535 29.4298 15.8093 29.6856 15.8093 30.0001C15.8093 30.3145 15.5535 30.5704 15.239 30.5704ZM22.4853 41.3056C22.1709 41.3056 21.915 41.0498 21.915 40.7353C21.915 40.4208 22.1709 40.165 22.4853 40.165C22.7998 40.165 23.0556 40.4208 23.0556 40.7353C23.0556 41.0498 22.7998 41.3056 22.4853 41.3056ZM45.5661 33.791C45.2516 33.791 44.9958 33.5351 44.9958 33.2206C44.9958 32.9062 45.2516 32.6503 45.5661 32.6503C45.8806 32.6503 46.1364 32.9062 46.1364 33.2206C46.1364 33.5351 45.8806 33.791 45.5661 33.791Z" fill="#7B9FFD"/>
<path d="M15.5409 38.1674C14.9175 38.3778 14.4674 38.9682 14.4674 39.6618C14.4674 40.5312 15.1747 41.2385 16.0441 41.2385C16.9136 41.2385 17.6209 40.5312 17.6209 39.6618C17.6209 38.9682 17.1708 38.3778 16.5474 38.1674V33.7238H20.8749V32.7174H15.5409V38.1674ZM16.0441 40.2321C15.7297 40.2321 15.4738 39.9762 15.4738 39.6618C15.4738 39.3473 15.7297 39.0915 16.0441 39.0915C16.3586 39.0915 16.6145 39.3473 16.6145 39.6618C16.6145 39.9762 16.3586 40.2321 16.0441 40.2321Z" fill="#7B9FFD"/>
<path d="M42.8487 39.241V35.9381H39.1249V36.9445H41.8422V39.241C41.2188 39.4515 40.7687 40.0419 40.7687 40.7354C40.7687 41.6048 41.476 42.3122 42.3454 42.3122C43.2149 42.3122 43.9222 41.6048 43.9222 40.7354C43.9222 40.0419 43.4721 39.4515 42.8487 39.241ZM42.3454 41.3057C42.031 41.3057 41.7751 41.0499 41.7751 40.7354C41.7751 40.421 42.031 40.1651 42.3454 40.1651C42.6599 40.1651 42.9158 40.421 42.9158 40.7354C42.9158 41.0499 42.6599 41.3057 42.3454 41.3057Z" fill="#7B9FFD"/>
<path d="M32.147 35.871H35.8708V24.1293H29.7916L27.3497 26.5711V29.5792C26.7263 29.7897 26.2762 30.3801 26.2762 31.0736C26.2762 31.9431 26.9835 32.6504 27.8529 32.6504C28.7223 32.6504 29.4297 31.9431 29.4297 31.0736C29.4297 30.3801 28.9796 29.7897 28.3561 29.5792V26.9879L30.2084 25.1357H34.8644V34.8645H32.147V35.871ZM27.8529 31.6439C27.5384 31.6439 27.2826 31.3881 27.2826 31.0736C27.2826 30.7592 27.5384 30.5033 27.8529 30.5033C28.1674 30.5033 28.4232 30.7592 28.4232 31.0736C28.4232 31.3881 28.1674 31.6439 27.8529 31.6439Z" fill="#7B9FFD"/>
<path d="M24.1292 35.871H30.2084L32.6503 33.4291V30.421C33.2737 30.2105 33.7238 29.6202 33.7238 28.9266C33.7238 28.0572 33.0165 27.3498 32.147 27.3498C31.2776 27.3498 30.5703 28.0572 30.5703 28.9266C30.5703 29.6202 31.0204 30.2105 31.6438 30.421V33.0123L29.7916 34.8645H25.1356V25.1357H27.8529V24.1293H24.1292V35.871ZM32.147 28.3563C32.4615 28.3563 32.7174 28.6121 32.7174 28.9266C32.7174 29.2411 32.4615 29.4969 32.147 29.4969C31.8326 29.4969 31.5767 29.2411 31.5767 28.9266C31.5767 28.6121 31.8326 28.3563 32.147 28.3563Z" fill="#7B9FFD"/>
<path d="M13.9306 25.1357H20.8749V24.1293H14.9371V20.7593C15.5605 20.5488 16.0106 19.9584 16.0106 19.2649C16.0106 18.3954 15.3033 17.6881 14.4339 17.6881C13.5644 17.6881 12.8571 18.3954 12.8571 19.2649C12.8571 19.9584 13.3072 20.5488 13.9306 20.7593V25.1357ZM14.4339 18.6945C14.7483 18.6945 15.0042 18.9504 15.0042 19.2649C15.0042 19.5793 14.7483 19.8352 14.4339 19.8352C14.1194 19.8352 13.8635 19.5793 13.8635 19.2649C13.8635 18.9504 14.1194 18.6945 14.4339 18.6945Z" fill="#7B9FFD"/>
<path d="M25.7059 25.7395H26.7794V26.7459H25.7059V25.7395Z" fill="#7B9FFD"/>
<path d="M33.2206 25.7395H34.2941V26.7459H33.2206V25.7395Z" fill="#7B9FFD"/>
<path d="M33.2206 33.2543H34.2941V34.2607H33.2206V33.2543Z" fill="#7B9FFD"/>
<path d="M25.7059 33.2543H26.7794V34.2607H25.7059V33.2543Z" fill="#7B9FFD"/>
</g>
<defs>
<clipPath id="clip0">
<rect width="34.2857" height="34.2857" fill="white" transform="translate(12.8571 12.8572)"/>
</clipPath>
</defs>
</svg>
