<svg width="24" height="24" viewBox="0 0 24 24" fill="none" xmlns="http://www.w3.org/2000/svg">
<path d="M12 0C12.3183 0 12.6235 0.126428 12.8485 0.351472C13.0736 0.576515 13.2 0.88174 13.2 1.2V2.4C13.2 2.71826 13.0736 3.02348 12.8485 3.24853C12.6235 3.47357 12.3183 3.6 12 3.6C11.6817 3.6 11.3765 3.47357 11.1515 3.24853C10.9264 3.02348 10.8 2.71826 10.8 2.4V1.2C10.8 0.88174 10.9264 0.576515 11.1515 0.351472C11.3765 0.126428 11.6817 0 12 0ZM3.3516 3.3516C3.57663 3.12664 3.8818 3.00026 4.2 3.00026C4.5182 3.00026 4.82337 3.12664 5.0484 3.3516L6.2484 4.5516C6.46699 4.77792 6.58794 5.08105 6.58521 5.39568C6.58248 5.71032 6.45627 6.01129 6.23378 6.23378C6.01129 6.45627 5.71032 6.58248 5.39568 6.58521C5.08105 6.58794 4.77792 6.46699 4.5516 6.2484L3.3516 5.0484C3.12664 4.82337 3.00026 4.5182 3.00026 4.2C3.00026 3.8818 3.12664 3.57663 3.3516 3.3516ZM20.6484 3.3516C20.8734 3.57663 20.9997 3.8818 20.9997 4.2C20.9997 4.5182 20.8734 4.82337 20.6484 5.0484L19.4484 6.2484C19.3377 6.36301 19.2053 6.45443 19.0589 6.51732C18.9125 6.58021 18.755 6.61332 18.5957 6.6147C18.4363 6.61609 18.2783 6.58572 18.1309 6.52539C17.9834 6.46505 17.8494 6.37595 17.7367 6.26327C17.6241 6.1506 17.535 6.01662 17.4746 5.86914C17.4143 5.72167 17.3839 5.56365 17.3853 5.40432C17.3867 5.24498 17.4198 5.08752 17.4827 4.94111C17.5456 4.79471 17.637 4.6623 17.7516 4.5516L18.9516 3.3516C19.1766 3.12664 19.4818 3.00026 19.8 3.00026C20.1182 3.00026 20.4234 3.12664 20.6484 3.3516ZM12 7.2C10.727 7.2 9.50606 7.70571 8.60589 8.60589C7.70571 9.50606 7.2 10.727 7.2 12C7.2 13.273 7.70571 14.4939 8.60589 15.3941C9.50606 16.2943 10.727 16.8 12 16.8C13.273 16.8 14.4939 16.2943 15.3941 15.3941C16.2943 14.4939 16.8 13.273 16.8 12C16.8 10.727 16.2943 9.50606 15.3941 8.60589C14.4939 7.70571 13.273 7.2 12 7.2ZM4.8 12C4.80018 10.7362 5.13302 9.49467 5.76506 8.40025C6.39711 7.30582 7.30609 6.39705 8.40066 5.76525C9.49523 5.13346 10.7368 4.80091 12.0006 4.80102C13.2645 4.80113 14.506 5.1339 15.6004 5.76589C16.6949 6.39788 17.6037 7.30681 18.2356 8.40135C18.8674 9.49588 19.2 10.7375 19.2 12.0013C19.2 13.2651 18.8673 14.5066 18.2353 15.6011C17.6034 16.6956 16.6945 17.6045 15.6 18.2364V20.4C15.6 21.3548 15.2207 22.2705 14.5456 22.9456C13.8705 23.6207 12.9548 24 12 24C11.0452 24 10.1295 23.6207 9.45442 22.9456C8.77928 22.2705 8.4 21.3548 8.4 20.4V18.2364C7.30515 17.6046 6.39601 16.6955 5.76404 15.6008C5.13208 14.506 4.79958 13.2641 4.8 12ZM10.8 19.1004V20.4C10.8 20.7183 10.9264 21.0235 11.1515 21.2485C11.3765 21.4736 11.6817 21.6 12 21.6C12.3183 21.6 12.6235 21.4736 12.8485 21.2485C13.0736 21.0235 13.2 20.7183 13.2 20.4V19.1004C12.4056 19.2339 11.5944 19.2339 10.8 19.1004ZM0 12C0 11.6817 0.126428 11.3765 0.351472 11.1515C0.576515 10.9264 0.88174 10.8 1.2 10.8H2.4C2.71826 10.8 3.02348 10.9264 3.24853 11.1515C3.47357 11.3765 3.6 11.6817 3.6 12C3.6 12.3183 3.47357 12.6235 3.24853 12.8485C3.02348 13.0736 2.71826 13.2 2.4 13.2H1.2C0.88174 13.2 0.576515 13.0736 0.351472 12.8485C0.126428 12.6235 0 12.3183 0 12ZM20.4 12C20.4 11.6817 20.5264 11.3765 20.7515 11.1515C20.9765 10.9264 21.2817 10.8 21.6 10.8H22.8C23.1183 10.8 23.4235 10.9264 23.6485 11.1515C23.8736 11.3765 24 11.6817 24 12C24 12.3183 23.8736 12.6235 23.6485 12.8485C23.4235 13.0736 23.1183 13.2 22.8 13.2H21.6C21.2817 13.2 20.9765 13.0736 20.7515 12.8485C20.5264 12.6235 20.4 12.3183 20.4 12Z" fill="white"/>
</svg>
