<svg width="60" height="60" viewBox="0 0 60 60" fill="none" xmlns="http://www.w3.org/2000/svg">
<circle cx="30" cy="30" r="29" stroke="#7B9FFD" stroke-width="2"/>
<g clip-path="url(#clip0)">
<path d="M33.1429 15.7144H29.7143C29.2406 15.7144 28.8572 16.0978 28.8572 16.5715C28.8572 17.0452 29.2406 17.4286 29.7143 17.4286H33.1429C33.6166 17.4286 34 17.0452 34 16.5715C34 16.0978 33.6166 15.7144 33.1429 15.7144Z" fill="#7B9FFD"/>
<path d="M36.8572 12.8572H23.1429C21.2527 12.8572 19.7144 14.3955 19.7144 16.2857V43.7143C19.7144 45.6046 21.2527 47.1429 23.1429 47.1429H36.8572C38.7475 47.1429 40.2858 45.6046 40.2858 43.7143V16.2857C40.2858 14.3955 38.7475 12.8572 36.8572 12.8572ZM38.5715 43.7143C38.5715 44.6612 37.8041 45.4286 36.8572 45.4286H23.1429C22.1961 45.4286 21.4286 44.6612 21.4286 43.7143V16.2857C21.4286 15.3389 22.1961 14.5715 23.1429 14.5715H36.8572C37.8041 14.5715 38.5715 15.3389 38.5715 16.2857V43.7143Z" fill="#7B9FFD"/>
<path d="M30.0001 44.2856C30.9468 44.2856 31.7143 43.5181 31.7143 42.5713C31.7143 41.6246 30.9468 40.8571 30.0001 40.8571C29.0533 40.8571 28.2858 41.6246 28.2858 42.5713C28.2858 43.5181 29.0533 44.2856 30.0001 44.2856Z" fill="#7B9FFD"/>
<path d="M26.8573 17.4286C27.3307 17.4286 27.7144 17.0449 27.7144 16.5715C27.7144 16.0981 27.3307 15.7144 26.8573 15.7144C26.3839 15.7144 26.0001 16.0981 26.0001 16.5715C26.0001 17.0449 26.3839 17.4286 26.8573 17.4286Z" fill="#7B9FFD"/>
</g>
<defs>
<clipPath id="clip0">
<rect width="34.2857" height="34.2857" fill="white" transform="translate(12.8572 12.8572)"/>
</clipPath>
</defs>
</svg>
