<svg width="60" height="60" viewBox="0 0 60 60" fill="none" xmlns="http://www.w3.org/2000/svg">
<circle cx="30" cy="30" r="29" stroke="#7B9FFD" stroke-width="2"/>
<g clip-path="url(#clip0)">
<path d="M44.0078 20.1167C44.3621 19.682 44.5751 19.1276 44.5751 18.5244C44.5751 17.1322 43.4424 15.9995 42.0503 15.9995C41.491 15.9995 40.9739 16.1826 40.555 16.4915C37.5524 14.1451 33.8216 12.8572 30 12.8572C26.9094 12.8572 23.8806 13.6887 21.2411 15.2617C21.0028 15.4037 20.9248 15.712 21.0668 15.9503C21.2088 16.1885 21.517 16.2666 21.7553 16.1246C22.9095 15.4368 24.1429 14.8999 25.4246 14.5218C24.4995 15.2341 23.6372 16.165 22.8669 17.2983C22.2089 18.2665 21.6343 19.3581 21.152 20.5427C20.2583 19.9567 19.4203 19.2807 18.6528 18.5223C19.0889 18.0925 19.552 17.6843 20.0412 17.3002C20.2593 17.1289 20.2973 16.8132 20.126 16.5951C19.9547 16.3769 19.639 16.339 19.4209 16.5102C17.4219 18.0799 15.7691 20.109 14.6408 22.3783C13.4572 24.7587 12.8572 27.323 12.8572 30C12.8572 33.5749 13.9401 36.9825 15.9925 39.8837C15.6381 40.3185 15.425 40.8729 15.425 41.4764C15.425 42.8686 16.5576 44.0012 17.9498 44.0012C18.5094 44.0012 19.0268 43.8179 19.4459 43.5087C22.4476 45.855 26.1781 47.1429 30 47.1429C34.579 47.1429 38.8839 45.3597 42.1218 42.1218C45.3597 38.8839 47.1429 34.579 47.1429 30C47.1429 26.4253 46.06 23.0178 44.0078 20.1167ZM44.7482 30.5023H46.1299C46.0139 34.3208 44.5772 37.9115 42.0377 40.7483C41.6297 40.3459 41.2019 39.9638 40.7588 39.6065C40.8662 39.3264 40.9257 39.0227 40.9257 38.7053C40.9257 37.8249 40.4724 37.0487 39.7873 36.5967C40.2841 34.6609 40.5535 32.615 40.5904 30.5023H42.5196C42.797 30.5023 43.0218 30.2774 43.0218 30C43.0218 29.7227 42.797 29.4978 42.5196 29.4978H40.5902C40.5401 26.6512 40.0652 23.9215 39.2153 21.5051C39.6749 21.2116 40.1216 20.8951 40.5541 20.5567C40.9731 20.866 41.4905 21.0492 42.0501 21.0492C42.4758 21.0492 42.8769 20.9428 43.2292 20.7561C45.0379 23.3373 46.0344 26.3404 46.1299 29.4978H44.7482C44.4709 29.4978 44.246 29.7227 44.246 30C44.246 30.2774 44.4709 30.5023 44.7482 30.5023ZM19.4457 39.444C19.0267 39.1348 18.5093 38.9516 17.9498 38.9516C17.5243 38.9516 17.1233 39.0578 16.7712 39.2445C14.9622 36.6632 13.9656 33.6598 13.87 30.5023H17.4328C17.6409 31.529 18.4737 32.3314 19.5158 32.4944C19.7063 34.62 20.1408 36.6535 20.7878 38.4959C20.3266 38.7896 19.8785 39.1056 19.4457 39.444ZM27.4962 24.0086C27.6329 25.0839 28.4479 25.9504 29.4978 26.1631V29.4978H22.3818C22.1888 28.5451 21.4576 27.7857 20.5205 27.551C20.6988 25.5967 21.0903 23.7283 21.6683 22.0293C23.4688 23.0316 25.4442 23.7075 27.4962 24.0086ZM38.4009 36.1804C37.6297 36.1804 36.9386 36.5283 36.4751 37.075C34.5744 36.2979 32.5693 35.8757 30.5023 35.8169V30.5023H39.5857C39.5499 32.4845 39.3016 34.4033 38.8461 36.2206C38.7014 36.1947 38.5528 36.1804 38.4009 36.1804ZM30.5023 29.4978V26.1631C31.5523 25.9503 32.3672 25.0839 32.5038 24.0085C34.56 23.7076 36.5325 23.0363 38.3357 22.0308C39.1063 24.292 39.5372 26.8389 39.5856 29.4977H30.5023V29.4978ZM32.4298 23.0041C32.1751 22.1015 31.4306 21.4023 30.5023 21.2142V13.8842C32.8295 14.0882 35.0167 15.7064 36.7074 18.4938C37.1903 19.29 37.6163 20.1555 37.9832 21.0762C36.27 22.0534 34.3909 22.7081 32.4298 23.0041ZM30 22.1683C30.8384 22.1683 31.5204 22.8503 31.5204 23.6887C31.5204 24.527 30.8384 25.209 30 25.209C29.1617 25.209 28.4797 24.527 28.4797 23.6887C28.4797 22.8503 29.1617 22.1683 30 22.1683ZM19.9074 28.4797C20.7457 28.4797 21.4277 29.1617 21.4277 30C21.4277 30.8384 20.7457 31.5204 19.9074 31.5204C19.0693 31.5204 18.3876 30.8388 18.3871 30.0009C18.3871 30.0006 18.3872 30.0004 18.3872 30C18.3872 29.9997 18.3871 29.9994 18.3871 29.9992C18.3875 29.1612 19.0693 28.4797 19.9074 28.4797ZM20.5206 32.4491C21.4577 32.2144 22.1888 31.455 22.3819 30.5023H29.4978V35.8176C26.7455 35.8987 24.0561 36.6453 21.6686 37.9715C21.0905 36.2723 20.6989 34.4037 20.5206 32.4491ZM29.4978 36.8224V46.1151C27.3669 45.9249 25.3239 44.53 23.6978 42.1372C23.0504 41.1846 22.4881 40.1031 22.02 38.9253C24.2927 37.6338 26.8644 36.9049 29.4978 36.8224ZM30.5023 36.822C32.3992 36.8793 34.2401 37.2618 35.9879 37.9619C35.9153 38.197 35.8761 38.4466 35.8761 38.7052C35.8761 39.6134 36.3583 40.4108 37.0799 40.8557C35.368 44.0101 33.0108 45.8931 30.5023 46.1156V36.822ZM36.8805 38.7053C36.8805 37.8669 37.5626 37.1849 38.4009 37.1849C39.2392 37.1849 39.9213 37.8669 39.9213 38.7053C39.9213 39.5436 39.2392 40.2256 38.4009 40.2256C37.5626 40.2256 36.8805 39.5436 36.8805 38.7053ZM43.5706 18.5244C43.5706 19.3627 42.8886 20.0447 42.0503 20.0447C41.2119 20.0447 40.5299 19.3627 40.5299 18.5244C40.5299 17.686 41.2119 17.004 42.0503 17.004C42.8886 17.004 43.5706 17.686 43.5706 18.5244ZM39.8787 17.2385C39.6546 17.6153 39.5254 18.0549 39.5254 18.5244C39.5254 18.9936 39.6545 19.4331 39.8784 19.8099C39.5447 20.0686 39.2023 20.3138 38.8515 20.5444C38.4787 19.6309 38.0494 18.7697 37.5661 17.973C36.6949 16.5366 35.6936 15.3815 34.6031 14.5347C36.5043 15.1007 38.2974 16.0143 39.8787 17.2385ZM23.6978 17.8629C25.3239 15.4701 27.3669 14.0751 29.4978 13.8849V21.2142C28.5696 21.4023 27.8252 22.1013 27.5704 23.0038C25.6128 22.7074 23.7307 22.048 22.0203 21.074C22.4884 19.8965 23.0505 18.8152 23.6978 17.8629ZM17.9601 19.2497C18.8249 20.1024 19.7739 20.857 20.788 21.5035C20.1409 23.3461 19.7064 25.3798 19.5158 27.5057C18.4737 27.6686 17.6408 28.4711 17.4328 29.4978H13.8697C13.9865 25.6605 15.4392 22.0617 17.9601 19.2497ZM17.9498 42.9967C17.1115 42.9967 16.4295 42.3147 16.4295 41.4764C16.4295 40.638 17.1115 39.956 17.9498 39.956C18.7881 39.956 19.4702 40.638 19.4702 41.4764C19.4702 42.3147 18.7881 42.9967 17.9498 42.9967ZM20.1219 42.7615C20.3457 42.3847 20.4746 41.9454 20.4746 41.4764C20.4746 41.0073 20.3456 40.5679 20.1218 40.1911C20.4559 39.9322 20.7991 39.6865 21.1513 39.4557C21.6339 40.641 22.2087 41.7332 22.867 42.7018C23.6345 43.8312 24.4937 44.7596 25.4152 45.4709C23.5071 44.9053 21.7078 43.9897 20.1219 42.7615ZM38.0343 41.2032C38.1541 41.2207 38.2764 41.2301 38.4009 41.2301C39.1123 41.2301 39.7555 40.9339 40.2148 40.4589C40.6058 40.7786 40.9839 41.1188 41.3453 41.4761C39.4203 43.3798 37.1006 44.7411 34.5714 45.4841C35.8832 44.4754 37.0638 43.0283 38.0343 41.2032Z" fill="#7B9FFD"/>
</g>
<defs>
<clipPath id="clip0">
<rect width="34.2857" height="34.2857" fill="white" transform="translate(12.8572 12.8572)"/>
</clipPath>
</defs>
</svg>
